<svg xmlns="http://www.w3.org/2000/svg" xmlns:xlink="http://www.w3.org/1999/xlink" viewBox="0 0 784 234.69"><defs><style>.cls-1{fill:#231f20;}.cls-2{fill:url(#linear-gradient);}.cls-3{fill:url(#linear-gradient-2);}.cls-4{fill:url(#linear-gradient-3);}</style><linearGradient id="linear-gradient" x1="75.06" y1="115.86" x2="123.76" y2="115.86" gradientUnits="userSpaceOnUse"><stop offset="0" stop-color="#58c8e8"/><stop offset="1" stop-color="#456ab2"/></linearGradient><linearGradient id="linear-gradient-2" x1="13.45" y1="136.63" x2="173.45" y2="136.63" xlink:href="#linear-gradient"/><linearGradient id="linear-gradient-3" x1="0" y1="98.51" x2="166.11" y2="98.51" xlink:href="#linear-gradient"/></defs><title>Asset 5Logo</title><g id="Layer_2" data-name="Layer 2"><g id="Layer_1-2" data-name="Layer 1"><path class="cls-1" d="M286.51,71.88h13.75v31.19a43.7,43.7,0,0,1-14.09,7.38A54.08,54.08,0,0,1,269.63,113a44.62,44.62,0,0,1-21.58-5.2A38.61,38.61,0,0,1,233,93.46a39.53,39.53,0,0,1-5.48-20.68A39.53,39.53,0,0,1,233,52.1a38.52,38.52,0,0,1,15.15-14.37,45.17,45.17,0,0,1,21.74-5.2,47.5,47.5,0,0,1,17.89,3.24,35.13,35.13,0,0,1,13.53,9.5l-9.17,8.94a29.41,29.41,0,0,0-21.58-8.94,30.49,30.49,0,0,0-14.7,3.47,25.26,25.26,0,0,0-10.06,9.73,28,28,0,0,0-3.63,14.31,27.54,27.54,0,0,0,3.63,14.09,26,26,0,0,0,10.06,9.84,29.47,29.47,0,0,0,14.59,3.58,31.49,31.49,0,0,0,16.1-4Z"/><path class="cls-1" d="M381.31,93.79H342.18l-7.71,18.11h-15L354.7,33.65H369l35.33,78.26h-15.2Zm-4.81-11.4L361.75,48.18,347.1,82.39Z"/><path class="cls-1" d="M425.47,33.65H440v66h40.92v12.3H425.47Z"/><path class="cls-1" d="M554.93,93.79H515.8l-7.71,18.11h-15l35.22-78.26h14.31L578,111.91h-15.2Zm-4.81-11.4L535.37,48.18,520.72,82.39Z"/><path class="cls-1" d="M644.48,111.91,623.24,82.17l-21,29.74H585.68L614.74,72l-27.5-38.35h16.43l20,27.84,19.79-27.84h15.76L631.85,71.44l29.4,40.47Z"/><path class="cls-1" d="M681.26,33.65h14.53v78.26H681.26Z"/><path class="cls-1" d="M734.87,110.45q-8.44-2.57-13.36-6.82l5-11.29a39.57,39.57,0,0,0,11.8,6.2,42.85,42.85,0,0,0,14,2.4q8.72,0,13-2.8a8.46,8.46,0,0,0,4.3-7.38,7.15,7.15,0,0,0-2.4-5.53,16.89,16.89,0,0,0-6.09-3.41q-3.69-1.23-10.06-2.8a116.74,116.74,0,0,1-14.48-4.25,23.8,23.8,0,0,1-9.5-6.65q-4-4.53-4-12.24a20.87,20.87,0,0,1,3.52-11.79,23.82,23.82,0,0,1,10.62-8.44q7.1-3.13,17.39-3.13a56.16,56.16,0,0,1,14.09,1.79,38.93,38.93,0,0,1,12,5.14l-4.58,11.29a45.3,45.3,0,0,0-10.73-4.58A40.22,40.22,0,0,0,754.6,44.6q-8.61,0-12.8,2.91a9,9,0,0,0-4.19,7.71A7,7,0,0,0,740,60.7a17.37,17.37,0,0,0,6.09,3.35q3.69,1.23,10.06,2.79A106,106,0,0,1,770.47,71,24.54,24.54,0,0,1,780,77.7q4,4.47,4,12.07a20.62,20.62,0,0,1-3.52,11.74,24,24,0,0,1-10.68,8.38Q762.65,113,752.36,113A59.73,59.73,0,0,1,734.87,110.45Z"/><path class="cls-1" d="M280.25,154.5q6.37,6.37,6.37,18.33v34.1H281V173.28q0-9.84-5-15t-13.92-5.14q-10.29,0-16.21,6.15T240,175.85v31.08h-5.59V148.58h5.37v12.63a22.2,22.2,0,0,1,9-9.61,27.72,27.72,0,0,1,14.14-3.47Q273.88,148.13,280.25,154.5Z"/><path class="cls-1" d="M359.06,179.1h-50.2a24.36,24.36,0,0,0,3.46,12.13,22.17,22.17,0,0,0,8.78,8.22,26.38,26.38,0,0,0,12.47,2.91,26.68,26.68,0,0,0,10.57-2.07,20.57,20.57,0,0,0,8.1-6.09l3.24,3.69a24.9,24.9,0,0,1-9.56,7,33.29,33.29,0,0,1-28-1.34,27.56,27.56,0,0,1-10.68-10.51,30.16,30.16,0,0,1-3.86-15.32A31.72,31.72,0,0,1,307,162.49a26.79,26.79,0,0,1,10-10.57,28.92,28.92,0,0,1,28.56-.06,26.64,26.64,0,0,1,10,10.45,31.42,31.42,0,0,1,3.63,15.2Zm-38.79-23.31a20.88,20.88,0,0,0-7.88,7.71A25.1,25.1,0,0,0,309,174.74H353.7a23.41,23.41,0,0,0-3.35-11.18,21.71,21.71,0,0,0-19-10.51A22.37,22.37,0,0,0,320.27,155.79Z"/><path class="cls-1" d="M405.46,203.24a14,14,0,0,1-5.31,3.07,20.91,20.91,0,0,1-6.65,1.06q-7.6,0-11.74-4.19t-4.14-11.68V153.38H366.89v-4.81h10.73V135.83h5.59v12.75h18.56v4.81H383.21v37.56q0,5.7,2.74,8.66t8.1,3a13,13,0,0,0,9.06-3.24Z"/><path class="cls-1" d="M503.28,148.58l-22.13,58.36h-5.25l-19.68-50.64-19.79,50.64h-5.14l-22.13-58.36h5.37L434,200.67l19.9-52.1h4.81l19.79,52,19.68-52Z"/><path class="cls-1" d="M522.45,203.58A27.36,27.36,0,0,1,512,193a32.53,32.53,0,0,1,0-30.52,27.39,27.39,0,0,1,10.45-10.57,31.21,31.21,0,0,1,29.85,0,27.41,27.41,0,0,1,10.45,10.57,32.53,32.53,0,0,1,0,30.52,27.38,27.38,0,0,1-10.45,10.57,31.21,31.21,0,0,1-29.85,0Zm26.94-4.36a22.47,22.47,0,0,0,8.38-8.72,28,28,0,0,0,0-25.49,22.5,22.5,0,0,0-8.38-8.72,24.64,24.64,0,0,0-24,0A22.48,22.48,0,0,0,517,165a28,28,0,0,0,0,25.49,22.45,22.45,0,0,0,8.38,8.72,24.64,24.64,0,0,0,24,0Z"/><path class="cls-1" d="M597.64,151.54a26.54,26.54,0,0,1,13.86-3.41v5.48l-1.34-.11q-9.73,0-15.2,6.09t-5.48,16.94v30.41h-5.59V148.58h5.37v12.75A20.19,20.19,0,0,1,597.64,151.54Z"/><path class="cls-1" d="M647.72,175.74l-15.2,13.86v17.33h-5.59V124h5.59v58.69l37.34-34.1H677l-25.15,23.59,27.61,34.77h-6.93Z"/><path class="cls-2" d="M123.76,115.86c0,15.26-10.15,28.19-23.24,28.9-13.77.75-25.46-12.17-25.46-28.9S86.76,86.21,100.53,87C113.62,87.67,123.76,100.6,123.76,115.86Z"/><path class="cls-3" d="M13.45,206.52a135.7,135.7,0,0,0,15.14,7.58,85.31,85.31,0,0,0,15.11,5.2l3.73.95a23.52,23.52,0,0,0,3.71.79l7.38,1.07c2.43.24,4.91.21,7.31.33a33.32,33.32,0,0,0,3.58.05l3.58-.28c4.66-.13,9.29-1.17,13.78-2l6.58-1.9a21,21,0,0,0,3.2-1.13l3.14-1.26a89.18,89.18,0,0,0,22.63-13.51A105.53,105.53,0,0,0,140,183.6a120.75,120.75,0,0,0,12.26-22.51,88.59,88.59,0,0,0,4.69-48.77C154,96.06,146,81,134.75,70.63a47.62,47.62,0,0,0-9-6.82c-1.64-.86-3.3-1.68-5-2.43A41.07,41.07,0,0,0,92.87,60.2,50.85,50.85,0,0,0,67.38,79.56l-2.06,3-1.74,3.14a51.36,51.36,0,0,0-5,14,58.52,58.52,0,0,0-1.15,15.69,65.66,65.66,0,0,0,3,15.77,60,60,0,0,0,7.12,14.16,56.92,56.92,0,0,0,10.5,11.17,48.62,48.62,0,0,1-13-8.47,60.43,60.43,0,0,1-10.39-13.65,66,66,0,0,1-6.33-17.48A69.06,69.06,0,0,1,47.2,97.5a65.94,65.94,0,0,1,4.39-18.91l1.87-4.4,2.21-4a63.37,63.37,0,0,1,4.9-7.62,30.41,30.41,0,0,1,2.77-3.47l2.9-3.29c1-1,2.11-1.94,3.16-2.91a31.08,31.08,0,0,1,3.24-2.73,54.19,54.19,0,0,1,6.89-4.58c1.19-.65,2.35-1.36,3.57-1.93l3.69-1.51a50.66,50.66,0,0,1,30.11-2.23A53.72,53.72,0,0,1,124.11,42a33.37,33.37,0,0,1,3.47,1.51c1.14.56,2.29,1,3.39,1.66a64.7,64.7,0,0,1,12.3,8.93,87.32,87.32,0,0,1,18.42,24,104.32,104.32,0,0,1,10,29.41A113,113,0,0,1,172.84,139a109.29,109.29,0,0,1-7.8,30.52A130.77,130.77,0,0,1,149.81,196a111,111,0,0,1-21.6,21.17l-6.26,4.27c-2.18,1.25-4.39,2.42-6.61,3.63a63.11,63.11,0,0,1-6.87,3.14l-3.52,1.46c-1.19.42-2.4.74-3.6,1.11l-3.65,1.08a25,25,0,0,1-3.69.92l-7.53,1.34c-5.1.36-10.28.9-15.38.35l-3.9-.26a37.14,37.14,0,0,1-3.86-.62c-2.57-.52-5.21-.86-7.74-1.58L48,229.52A21.05,21.05,0,0,1,44.25,228l-3.67-1.78A95.24,95.24,0,0,1,13.45,206.52Z"/><path class="cls-4" d="M166.11,47.58a126.21,126.21,0,0,0-9-9,79.71,79.71,0,0,0-9.79-7.91l-2.56-1.79a21.93,21.93,0,0,0-2.6-1.69l-5.37-3.05c-1.83-.94-3.72-1.67-5.58-2.53a29.8,29.8,0,0,0-2.83-1.18l-2.9-.91a75.12,75.12,0,0,0-11.87-2.84l-6.09-.54a16.6,16.6,0,0,0-3.07-.07l-3.08.08a68.63,68.63,0,0,0-24.57,5.46A83.35,83.35,0,0,0,54.18,36.29,103.78,103.78,0,0,0,36.3,59.69c-9.69,17.82-12.42,40.08-7.39,60.66C33.65,140.64,45.6,158,61.25,167.78a47.56,47.56,0,0,0,11.47,5.59c2,.55,4,1.05,6,1.46a42.75,42.75,0,0,0,6,.61A45.5,45.5,0,0,0,108,170a54,54,0,0,0,18.53-16.38,51.84,51.84,0,0,0,3.5-5.45l1.62-2.85,1.35-2.92a53.08,53.08,0,0,0,3.82-12.56,58.82,58.82,0,0,0,.85-13.55,65.73,65.73,0,0,0-2.26-13.7,61.35,61.35,0,0,0-5.5-12.91,60.61,60.61,0,0,0-8.61-11.25,48.13,48.13,0,0,1,10.55,9.09,59.72,59.72,0,0,1,7.82,12.59A64.72,64.72,0,0,1,144.13,115a68.62,68.62,0,0,1-2.28,32.33l-1.34,3.93L138.9,155a71.09,71.09,0,0,1-3.64,7.25,35,35,0,0,1-2.11,3.47l-2.25,3.4c-.81,1.07-1.66,2.11-2.51,3.17a37.37,37.37,0,0,1-2.63,3.1A66,66,0,0,1,120,181c-1,.88-2,1.81-3.1,2.63l-3.3,2.34a61.11,61.11,0,0,1-30.51,10.84,60.15,60.15,0,0,1-8.43.07,35.59,35.59,0,0,1-4.24-.5c-1.41-.24-2.87-.37-4.27-.72a65.25,65.25,0,0,1-16.55-6.24,87.16,87.16,0,0,1-28.53-24.55A105.89,105.89,0,0,1,3.3,127.24,113.29,113.29,0,0,1,1.16,84,102.44,102.44,0,0,1,15.31,44.91,112.32,112.32,0,0,1,40,17.46,90.34,90.34,0,0,1,69.63,2.77L77.23,1C79.79.7,82.34.47,84.85.21a54,54,0,0,1,7.5-.15L96,.14c1.23.1,2.46.31,3.68.47l3.62.5a22.81,22.81,0,0,1,3.57.66l7,1.79c4.52,1.68,8.94,3.16,13.15,5.54l3.12,1.62c1,.52,2,1.27,3,1.89,2,1.33,3.94,2.48,5.81,3.92L144.39,21A23.92,23.92,0,0,1,147,23.34l2.47,2.49A108,108,0,0,1,166.11,47.58Z"/></g></g></svg>